<?xml version="1.0" standalone="no"?><!DOCTYPE svg PUBLIC "-//W3C//DTD SVG 1.1//EN" "http://www.w3.org/Graphics/SVG/1.1/DTD/svg11.dtd"><svg t="1551076565202" class="icon" style="" viewBox="0 0 1024 1024" version="1.1" xmlns="http://www.w3.org/2000/svg" p-id="6259" xmlns:xlink="http://www.w3.org/1999/xlink" width="200" height="200"><defs><style type="text/css"></style></defs><path d="M558.08 856.064a377.514667 377.514667 0 0 1-46.08 2.901333 347.136 347.136 0 0 1-321.194667-216.064h199.68a178.005333 178.005333 0 0 0 243.029334 0h61.952a17.066667 17.066667 0 0 0 0-34.133333h-34.133334A177.493333 177.493333 0 0 0 690.858667 512a175.274667 175.274667 0 0 0-2.56-28.501333h89.770666a17.066667 17.066667 0 0 0 0-34.133334H679.253333a182.272 182.272 0 0 0-17.066666-34.133333h182.784a341.333333 341.333333 0 0 1 13.994666 96.768 358.4 358.4 0 0 1-4.096 54.101333 17.066667 17.066667 0 0 0 14.165334 19.626667 17.066667 17.066667 0 0 0 19.456-14.336A380.074667 380.074667 0 1 0 563.2 889.856a17.066667 17.066667 0 0 0-4.437333-34.133333zM165.034667 512a341.333333 341.333333 0 0 1 13.994666-96.768H361.813333a182.272 182.272 0 0 0-17.066666 34.133333h-52.053334a17.066667 17.066667 0 0 0 0 34.133334h43.008a175.274667 175.274667 0 0 0-2.56 28.501333 177.493333 177.493333 0 0 0 28.672 96.768H179.029333A341.333333 341.333333 0 0 1 165.034667 512z m202.24 0A144.725333 144.725333 0 1 1 512 656.725333 145.066667 145.066667 0 0 1 367.274667 512zM512 165.034667a347.136 347.136 0 0 1 321.194667 216.064h-199.68a178.005333 178.005333 0 0 0-243.029334 0h-199.68A347.136 347.136 0 0 1 512 165.034667z" fill="#3D3D63" p-id="6260"></path><path d="M230.058667 449.365333H211.626667a17.066667 17.066667 0 1 0 0 34.133334h18.432a17.066667 17.066667 0 1 0 0-34.133334zM578.730667 487.424l-78.848-45.568a28.501333 28.501333 0 0 0-42.666667 24.576v91.136a28.330667 28.330667 0 0 0 42.666667 24.576l78.848-45.568a28.16 28.16 0 0 0 0-49.152z m-87.381334 60.245333v-71.338666L553.130667 512zM823.978667 623.957333a35.157333 35.157333 0 0 1-35.157334-35.157333 17.066667 17.066667 0 0 0-34.133333 0v151.210667a83.968 83.968 0 0 0-51.2-17.066667 85.333333 85.333333 0 1 0 85.333333 85.333333V648.533333a68.266667 68.266667 0 0 0 35.157334 9.898667 34.986667 34.986667 0 0 1 34.133333 34.133333 17.066667 17.066667 0 0 0 34.133333 0 69.290667 69.290667 0 0 0-68.266666-68.608z m-120.490667 235.008a51.2 51.2 0 1 1 51.2-51.2 51.2 51.2 0 0 1-51.2 51.2z" fill="#3D3D63" p-id="6261"></path></svg>