<?xml version="1.0" standalone="no"?><!DOCTYPE svg PUBLIC "-//W3C//DTD SVG 1.1//EN" "http://www.w3.org/Graphics/SVG/1.1/DTD/svg11.dtd"><svg t="1551091525786" class="icon" style="" viewBox="0 0 1024 1024" version="1.1" xmlns="http://www.w3.org/2000/svg" p-id="15116" xmlns:xlink="http://www.w3.org/1999/xlink" width="32" height="32"><defs><style type="text/css"></style></defs><path d="M512 1024c-281.6 0-512-230.4-512-512s230.4-512 512-512 512 230.4 512 512S793.6 1024 512 1024zM512 32C249.6 32 32 249.6 32 512s217.6 480 480 480 480-217.6 480-480S774.4 32 512 32z" p-id="15117" fill="#d4237a"></path><path d="M697.6 230.4 326.4 230.4C288 230.4 256 262.4 256 307.2l0 409.6c0 38.4 32 76.8 70.4 76.8l364.8 0c38.4 0 70.4-32 70.4-76.8L761.6 307.2C768 262.4 736 230.4 697.6 230.4zM729.6 716.8c0 19.2-19.2 38.4-38.4 38.4L326.4 755.2c-19.2 0-38.4-19.2-38.4-38.4L288 307.2c0-19.2 19.2-38.4 38.4-38.4l364.8 0c19.2 0 38.4 19.2 38.4 38.4L729.6 716.8zM403.2 364.8l256 0L659.2 326.4l-256 0L403.2 364.8zM352 364.8 384 364.8 384 326.4 352 326.4 352 364.8zM352 473.6 384 473.6 384 435.2 352 435.2 352 473.6zM403.2 473.6l256 0L659.2 435.2l-256 0L403.2 473.6zM352 588.8 384 588.8 384 550.4 352 550.4 352 588.8zM403.2 588.8l256 0L659.2 550.4l-256 0L403.2 588.8zM352 697.6 384 697.6l0-38.4L352 659.2 352 697.6zM403.2 697.6l256 0 0-38.4-256 0L403.2 697.6z" p-id="15118" fill="#d4237a"></path></svg>