<?xml version="1.0" standalone="no"?><!DOCTYPE svg PUBLIC "-//W3C//DTD SVG 1.1//EN" "http://www.w3.org/Graphics/SVG/1.1/DTD/svg11.dtd"><svg t="1551091494866" class="icon" style="" viewBox="0 0 1024 1024" version="1.1" xmlns="http://www.w3.org/2000/svg" p-id="14315" xmlns:xlink="http://www.w3.org/1999/xlink" width="32" height="32"><defs><style type="text/css"></style></defs><path d="M343.844697 622.805642c-6.580882 0-13.18837-2.64627-19.097964-7.627724l-93.915973-76.538187c-9.736758-8.232498-14.369266-20.467147-12.274558-32.098046 1.826602-10.206456 8.823969-18.425651 18.708084-21.998013l117.566626-42.425252c11.510148-4.136204 24.267706-0.537236 32.258705 9.025561 6.580882 7.869225 9.414417 18.721387 7.574512 29.021987l-24.388457 117.123534C367.50763 612.640118 357.112885 622.805642 343.844697 622.805642zM364.741633 467.850477l-118.130468 42.559305c-0.859577 0.309038-0.899486 0.523933-0.980327 0.99363-0.295735 1.611707 0.563842 4.203742 2.76702 6.070252l93.90267 76.524884c0.134053 0.119727 0.268106 0.228197 0.388856 0.321318 0.214894-0.591471 0.429789-1.342578 0.591471-2.282996l24.388457-117.095905c0.416486-2.430352-0.618077-4.888334-1.664919-6.137791C365.426225 468.106304 364.929922 467.850477 364.741633 467.850477z" p-id="14316" fill="#d4237a"></path><path d="M496.113683 918.253584c-246.320035 0-446.709995-200.38996-446.709995-446.696692 0-246.320035 200.388936-446.708971 446.709995-446.708971 246.320035 0 446.708971 200.388936 446.708971 446.708971C942.823678 717.863624 742.433718 918.253584 496.113683 918.253584zM496.113683 79.856769c-215.982076 0-391.700123 175.718047-391.700123 391.700123 0 215.982076 175.718047 391.68682 391.700123 391.68682 215.981053 0 391.6991-175.704744 391.6991-391.68682C887.813806 255.57584 712.095759 79.856769 496.113683 79.856769z" p-id="14317" fill="#d4237a"></path><path d="M496.113683 687.874613c-7.602142 0-13.752212-6.151094-13.752212-13.752212s6.151094-13.751189 13.752212-13.751189c104.122429 0 188.825576-84.703147 188.825576-188.813297 0-104.122429-84.703147-188.825576-188.825576-188.825576-104.123452 0-188.8266 84.703147-188.8266 188.825576 0 7.602142-6.151094 13.752212-13.752212 13.752212s-13.752212-6.151094-13.752212-13.752212c0-119.284757 97.045243-216.33 216.331024-216.33 119.284757 0 216.33 97.045243 216.33 216.33C712.444706 590.82937 615.399463 687.874613 496.113683 687.874613z" p-id="14318" fill="#d4237a"></path><path d="M828.21236 485.310128c-7.602142 0-13.752212-6.151094-13.752212-13.752212 0-143.123698-96.306416-269.405823-234.192833-307.104423-7.333012-2.000564-11.644201-9.561773-9.642614-16.894785 2.01489-7.333012 9.656941-11.589966 16.895809-9.642614 149.811004 40.961924 254.444063 178.149423 254.444063 333.641823C841.963549 479.159034 835.812455 485.310128 828.21236 485.310128z" p-id="14319" fill="#d4237a"></path><path d="M514.660084 153.708777c-0.254803 0-0.509606 0-0.765433-0.026606-5.89629-0.322341-11.831466-0.484024-17.780969-0.484024-7.602142 0-13.752212-6.151094-13.752212-13.752212s6.151094-13.752212 13.752212-13.752212c6.459109 0 12.879332 0.188288 19.286252 0.537236 7.586792 0.403183 13.388938 6.888897 12.973476 14.477736C527.983531 148.027381 521.913279 153.708777 514.660084 153.708777z" p-id="14320" fill="#d4237a"></path></svg>