<?xml version="1.0" standalone="no"?><!DOCTYPE svg PUBLIC "-//W3C//DTD SVG 1.1//EN" "http://www.w3.org/Graphics/SVG/1.1/DTD/svg11.dtd"><svg t="1551079093243" class="icon" style="" viewBox="0 0 1024 1024" version="1.1" xmlns="http://www.w3.org/2000/svg" p-id="5050" xmlns:xlink="http://www.w3.org/1999/xlink" width="200" height="200"><defs><style type="text/css"></style></defs><path d="M165.7 564.9c12.1 0 23.9-4.1 33.3-11.7l0.7-0.6c12.4-10 19.5-25.1 19.4-41 0-14.1-5.6-27.7-15.6-37.7-10-10-23.6-15.6-37.7-15.6-14.1 0-27.7 5.6-37.7 15.6a53.775 53.775 0 0 0-11.4 58.4c2.8 6.6 6.6 12.3 11.4 17 9.9 9.9 23.5 15.5 37.6 15.6m741.6-74.1c-2.7-6.3-6.5-12.1-11.4-17-10-10-23.6-15.6-37.7-15.6-14.1 0-27.7 5.6-37.7 15.6-15.2 15.4-19.7 38.5-11.4 58.5 2.8 6.6 6.6 12.2 11.4 17 19.3 19 49.7 20.7 71 3.9l0.7-0.6c12.3-10 19.5-25.1 19.4-41-0.1-7.3-1.5-14.2-4.3-20.8m-766.1-86.1c10.9 24.8 38.6 37.6 64.5 29.9l0.9-0.3c15.2-4.8 27.4-16.2 33.1-31 5.2-13.1 5-27.8-0.6-40.8-5.6-13-16.1-23.2-29.2-28.4-13.1-5.2-27.8-5-40.8 0.6-26.9 11.7-39.4 42.9-27.9 70m741.5 213.7c-5.6-13-16.2-23.2-29.3-28.4-13.1-5.2-27.8-5-40.8 0.6-19.8 8.7-32.5 28.4-32.2 50.1 0.2 7.2 1.6 13.8 4.2 20 10.9 24.8 38.6 37.6 64.5 29.9l0.9-0.3c15.2-4.8 27.3-16.2 33.1-31 5.3-13.2 5.1-27.9-0.4-40.9M561 144.6c-2.7-6.3-6.5-12.1-11.3-17a53.775 53.775 0 0 0-58.4-11.4c-6.6 2.8-12.3 6.6-17 11.4-19 19.3-20.7 49.7-3.9 71l0.6 0.7c2.4 2.7 5 5.3 7.8 7.7 9.4 7.6 21.2 11.7 33.3 11.7 14.1 0 27.7-5.6 37.7-15.6 10-10 15.6-23.6 15.6-37.7-0.1-7.3-1.5-14.2-4.4-20.8m0 692.4c-2.7-6.3-6.5-12.1-11.4-17a53.775 53.775 0 0 0-58.4-11.4c-6.6 2.8-12.3 6.6-17 11.4-19 19.3-20.7 49.7-3.9 71l0.6 0.7c2.4 2.7 5 5.3 7.8 7.7 9.4 7.6 21.2 11.7 33.3 11.7 14.1 0 27.7-5.6 37.7-15.6 10-10 15.6-23.6 15.6-37.7 0-7.3-1.4-14.2-4.3-20.8m147.6-547.3c5.7 12 15.8 21.5 28.1 26.4 6.6 2.7 13.3 4 20 4 14.1 0 27.7-5.7 37.7-15.6 10-10 15.6-23.6 15.6-37.7-0.1-21.7-13.2-41.1-33.2-49.4-6.4-2.6-13.2-4-20.1-4-27.1 0.2-49.8 20.5-53 47.4l-0.1 1c-0.9 9.5 0.8 19.2 5 27.9m-403.8 429c-10-10-23.6-15.6-37.7-15.6-27.1 0.2-49.8 20.5-53 47.4v0.9c-0.2 3.6-0.2 7.3 0 10.9 1.3 12.1 6.7 23.3 15.3 31.8 10 10 23.6 15.6 37.7 15.6 14.1 0 27.7-5.7 37.7-15.6 10-10 15.6-23.6 15.6-37.7 0-14.2-5.6-27.7-15.6-37.7M784.3 352l-0.4 0.8c-7.5 14-8.2 30.7-2 45.3 5.5 13 15.9 23.4 29 28.7 13.1 5.3 27.8 5.2 40.8-0.2 13-5.5 23.4-15.9 28.7-29 8.1-20.1 3.3-43-12.1-58.3-4.9-4.8-10.7-8.7-17.1-11.3-25-10-53.8 0.2-66.9 24M242.1 665.7c8.1-20.1 3.3-43.1-12.2-58.3-4.9-4.8-10.7-8.7-17-11.3-25.1-10.1-53.9 0.1-67 23.8l-0.4 0.8c-7.5 14-8.2 30.7-2 45.3 5.5 13 15.9 23.3 29 28.7 13.1 5.3 27.8 5.2 40.8-0.2 13.1-5.3 23.4-15.7 28.8-28.8M596.3 217c5.8 10.6 15.2 18.9 26.4 23.4 13.1 5.3 27.8 5.3 40.8-0.2 13-5.5 23.3-15.9 28.7-29 2.7-6.7 4-13.6 3.9-20.8-0.1-6.9-1.4-13.7-4.1-20-8.5-19.9-28.1-32.8-49.8-32.6-7.2 0.1-13.9 1.5-20 4.1-24.9 10.6-38 38.2-30.5 64.3l0.3 0.9c1.2 3.3 2.6 6.6 4.3 9.9M430.2 811.4c-8.5-19.9-28.2-32.8-49.8-32.6-7.2 0.1-13.8 1.5-20 4.1-24.9 10.6-38 38.2-30.5 64.3l0.3 0.9c4.6 15.2 15.9 27.5 30.7 33.4 13.1 5.3 27.8 5.3 40.8-0.2 13-5.5 23.3-16 28.7-29 5.3-13.2 5.2-27.9-0.2-40.9m364.3-92.7c-8.5-8.6-19.8-14-31.8-15.3l-0.9-0.1c-15.8-1.6-31.5 4-42.7 15.3-10 10-15.6 23.6-15.6 37.7 0 14.1 5.6 27.7 15.6 37.7 10 10 23.6 15.6 37.7 15.6 21.7-0.1 41.2-13.2 49.4-33.2 2.6-6.7 4-13.4 4-20.1-0.1-14.1-5.8-27.6-15.7-37.6M304.8 229c-8.5-8.6-19.8-14-31.8-15.3h-0.9c-15.8-1.6-31.5 4-42.7 15.3-10 10-15.6 23.6-15.6 37.7 0 14.1 5.6 27.7 15.6 37.7 10 10 23.6 15.6 37.7 15.6 21.7-0.1 41.1-13.3 49.4-33.3 2.7-6.6 4-13.4 4-20.1-0.1-14-5.7-27.6-15.7-37.6M688 793.3c-4.1-4.4-8.8-8-14-10.8l-0.9-0.4c-14.1-7.4-30.8-7.9-45.3-1.5-13 5.6-23.2 16.1-28.5 29.2-5.2 13.2-5 27.8 0.6 40.8 5.6 13 16.1 23.2 29.2 28.5 20.2 7.9 43.1 2.9 58.2-12.7 4.9-5.2 8.6-10.9 11.1-17.2 7.6-19.1 3.5-40.8-10.4-55.9M338.1 232c5.2 4.9 10.9 8.6 17.2 11.1 20.2 7.9 43.1 2.9 58.1-12.6 5-5.2 8.6-10.9 11.2-17.2 7.5-19.1 3.4-40.8-10.4-56-4.1-4.4-8.8-8-14-10.8l-0.8-0.4c-14.1-7.4-30.8-7.9-45.3-1.5-13 5.6-23.2 16.1-28.5 29.2-5.2 13.1-5 27.8 0.6 40.8 2.7 6.7 6.7 12.5 11.9 17.4" p-id="5051" fill="#d4237a"></path></svg>