<svg version="1.1" xmlns="http://www.w3.org/2000/svg" hidden><symbol id="分享" viewBox="0 0 1024 1024"><defs><style/></defs><path d="M241.716 782.899s-.798 5.987-.314 9.363v.19c1.395 14.576 13.673 25.97 28.609 25.97 14.94 0 26.326-11.06 28.608-25.97l2.266-13.162C412.57 314.142 761.634 232.86 920.688 220.447L760.02 370.377c-11.424 11.172-11.634 29.666-.461 41.09 11.174 11.429 29.666 11.64 41.096.467l214.032-199.735c5.801-5.67 8.704-13.228 8.704-20.793.182-9.836-4.61-19.557-13.484-25.176L748.854 8.059c-13.501-8.55-31.545-4.491-40.093 9.011-8.55 13.506-4.498 31.55 9.01 40.098l179.135 108.54c-556.823 53.202-645.008 541.636-655.19 617.19zm0 0" fill="#d4237a"/><path d="M1023.398 570.647c0-16.05-13.011-29.057-29.063-29.057-16.044 0-29.058 13.006-29.058 29.057 0 .144.012.28.012.422h-.012v298.87c0 24.976-9.834 48.569-27.697 66.43-17.867 17.862-41.454 27.704-66.429 27.704H156.764c-24.975 0-48.564-9.842-66.43-27.704-17.86-17.861-27.696-41.454-27.696-66.43V235.012c0-24.976 9.835-48.569 27.696-66.43 17.861-17.861 41.455-27.697 66.43-27.697H343.15c16.046 0 29.058-13.011 29.058-29.063 0-16.045-13.012-29.056-29.058-29.056H156.764c-83.733 0-152.247 68.507-152.247 152.246v634.934c0 83.733 68.514 152.248 152.247 152.248H871.15c83.733 0 152.247-68.515 152.247-152.248V571.069h-.012c0-.143.012-.278.012-.422zM343.15 82.766v58.12-58.12zm0 0" fill="#d4237a"/></symbol><symbol id="评论" viewBox="0 0 1024 1024"><defs><style/></defs><path d="M816 808H672c-4.8 0-8 1.6-11.2 4.8l-80 80c-36.8 36.8-97.6 36.8-136 0l-80-80c-3.2-3.2-6.4-4.8-11.2-4.8h-144c-70.4 0-128-57.6-128-128V232c0-70.4 57.6-128 128-128h608c70.4 0 128 57.6 128 128v448C944 750.4 886.4 808 816 808zm0-64c35.2 0 64-28.8 64-64V232c0-35.2-28.8-64-64-64H208c-35.2 0-64 28.8-64 64v448c0 35.2 28.8 64 64 64h144c20.8 0 41.6 8 56 24l80 80c12.8 12.8 32 12.8 44.8 0l80-80c14.4-14.4 35.2-24 56-24H816zM320 408c27.2 0 48 20.8 48 48v32c0 27.2-20.8 48-48 48s-48-20.8-48-48v-32c0-27.2 20.8-48 48-48zm192 0c27.2 0 48 20.8 48 48v32c0 27.2-20.8 48-48 48s-48-20.8-48-48v-32c0-27.2 20.8-48 48-48zm192 0c27.2 0 48 20.8 48 48v32c0 27.2-20.8 48-48 48s-48-20.8-48-48v-32c0-27.2 20.8-48 48-48z" fill="#d4237a"/></symbol><symbol id="喜欢" viewBox="0 0 1024 1024"><defs><style/></defs><path d="M559.24 916.702a68.25 68.25 0 0 1-94.446-.034l-320.717-307.49c-.444-.359-127.01-112.128-127.01-252.143 0-165.735 104.96-268.68 273.988-268.68 89.31 0 172.1 61.064 220.945 106.034 48.81-44.97 131.601-106.035 220.945-106.035 168.994 0 273.988 102.946 273.988 268.68 0 121.703-96.938 223.881-126.634 252.314L559.24 916.702z" fill="#d4237a"/></symbol><symbol id="下载" viewBox="0 0 1024 1024"><defs><style/></defs><path d="M168.064 498.7l325.837 325.838c2.393 2.393 5.184 4.185 8.14 5.427.013 0 .013.013.026.013 1.255.524 2.547.883 3.853 1.203.346.09.666.23 1.024.307 3.34.666 6.784.666 10.112 0 .358-.077.678-.218 1.024-.307 1.306-.32 2.598-.679 3.853-1.203.013-.013.025-.013.051-.026a25.237 25.237 0 0 0 8.115-5.427L855.936 498.7c9.958-9.959 9.958-26.253 0-36.199-9.958-9.958-26.253-9.958-36.198 0L537.6 744.64V89.613c0-14.08-11.52-25.6-25.6-25.6-14.08 0-25.6 11.52-25.6 25.6V744.64L204.262 462.502c-9.958-9.958-26.252-9.958-36.198 0-9.958 9.959-9.958 26.24 0 36.199z" fill="#d4237a"/><path d="M972.8 729.6v128c0 28.275-22.925 51.2-51.2 51.2H102.4c-28.275 0-51.2-22.925-51.2-51.2v-128c0-14.144-11.456-25.6-25.6-25.6C11.456 704 0 715.456 0 729.6v128C0 913.92 46.08 960 102.4 960h819.2c56.32 0 102.4-46.08 102.4-102.4v-128c0-14.144-11.456-25.6-25.6-25.6-14.144 0-25.6 11.456-25.6 25.6z" fill="#d4237a"/></symbol></svg>