<?xml version="1.0" standalone="no"?><!DOCTYPE svg PUBLIC "-//W3C//DTD SVG 1.1//EN" "http://www.w3.org/Graphics/SVG/1.1/DTD/svg11.dtd"><svg t="1551080473346" class="icon" style="" viewBox="0 0 1024 1024" version="1.1" xmlns="http://www.w3.org/2000/svg" p-id="8702" xmlns:xlink="http://www.w3.org/1999/xlink" width="200" height="200"><defs><style type="text/css"></style></defs><path d="M168.064 498.7008l325.8368 325.8368c2.3936 2.3936 5.184 4.1856 8.1408 5.4272 0.0128 0 0.0128 0.0128 0.0256 0.0128 1.2544 0.5248 2.5472 0.8832 3.8528 1.2032 0.3456 0.0896 0.6656 0.2304 1.024 0.3072 3.3408 0.6656 6.784 0.6656 10.112 0 0.3584-0.0768 0.6784-0.2176 1.024-0.3072 1.3056-0.32 2.5984-0.6784 3.8528-1.2032 0.0128-0.0128 0.0256-0.0128 0.0512-0.0256 2.9568-1.2416 5.7216-3.0336 8.1152-5.4272L855.936 498.7008c9.9584-9.9584 9.9584-26.2528 0-36.1984-9.9584-9.9584-26.2528-9.9584-36.1984 0L537.6 744.64 537.6 89.6128c0-14.08-11.52-25.6-25.6-25.6-14.08 0-25.6 11.52-25.6 25.6l0 655.0272L204.2624 462.5024c-9.9584-9.9584-26.2528-9.9584-36.1984 0C158.1056 472.4608 158.1056 488.7424 168.064 498.7008z" p-id="8703" fill="#d4237a"></path><path d="M972.8 729.6l0 128c0 28.2752-22.9248 51.2-51.2 51.2L102.4 908.8c-28.2752 0-51.2-22.9248-51.2-51.2L51.2 729.6c0-14.144-11.456-25.6-25.6-25.6l0 0c-14.144 0-25.6 11.456-25.6 25.6l0 128c0 56.32 46.08 102.4 102.4 102.4l819.2 0c56.32 0 102.4-46.08 102.4-102.4L1024 729.6c0-14.144-11.456-25.6-25.6-25.6l0 0C984.256 704 972.8 715.456 972.8 729.6z" p-id="8704" fill="#d4237a"></path></svg>