<?xml version="1.0" standalone="no"?><!DOCTYPE svg PUBLIC "-//W3C//DTD SVG 1.1//EN" "http://www.w3.org/Graphics/SVG/1.1/DTD/svg11.dtd"><svg t="1551080498628" class="icon" style="" viewBox="0 0 1024 1024" version="1.1" xmlns="http://www.w3.org/2000/svg" p-id="10902" xmlns:xlink="http://www.w3.org/1999/xlink" width="200" height="200"><defs><style type="text/css"></style></defs><path d="M241.716115 782.898601s-0.797747 5.987618-0.31368 9.363442v0.189051c1.394401 14.577395 13.672479 25.971028 28.608108 25.971027 14.941047 0 26.326251-11.059482 28.608108-25.971027l2.266204-13.160717c111.685774-465.148473 460.749125-546.430757 619.803004-558.8437L760.021026 370.37674c-11.423736 11.172672-11.63386 29.666553-0.461189 41.090891 11.173876 11.427951 29.666553 11.63988 41.09631 0.466005l214.03219-199.734759c5.800975-5.669723 8.70357-13.227547 8.703569-20.793198 0.181826-9.835467-4.610074-19.557142-13.48403-25.175689L748.853773 8.058749c-13.500888-8.549439-31.544419-4.490864-40.093256 9.011229-8.549439 13.506307-4.497486 31.549235 9.010025 40.098072l179.135428 108.539942C340.083429 218.910186 251.898377 707.344441 241.716115 782.898601z m0 0" p-id="10903" fill="#d4237a"></path><path d="M1023.397927 570.647344c0-16.05127-13.011403-29.057255-29.062673-29.057255-16.044647 0-29.057857 13.005984-29.057857 29.057255 0 0.143895 0.012041 0.27876 0.012041 0.421451h-0.012041v298.870318c0 24.975801-9.834865 48.568639-27.697171 66.430344-17.867123 17.861102-41.454543 27.703794-66.42914 27.703794H156.763593c-24.974597 0-48.563221-9.842692-66.429139-27.703794-17.861102-17.861704-27.696569-41.454543-27.696569-66.430344V235.012031c0-24.976403 9.835467-48.568639 27.696569-66.429742C108.194954 150.720585 131.788997 140.885118 156.763593 140.885118h186.387399c16.045852 0 29.057857-13.011403 29.057857-29.063275 0-16.04525-13.011403-29.05605-29.057857-29.056051H156.763593c-83.732722 0-152.246841 68.506894-152.24684 152.246239v634.933705c0 83.733324 68.514119 152.248045 152.24684 152.248045h714.387493c83.732722 0 152.246841-68.514721 152.246841-152.248045V571.068795h-0.012042c0.000602-0.142691 0.012041-0.277556 0.012042-0.421451z m0 0M343.150992 82.765792V140.885118v-58.119326z m0 0" p-id="10904" fill="#d4237a"></path></svg>